<?xml version="1.0" encoding="utf-8"?>
<!-- Generator: Adobe Illustrator 16.0.0, SVG Export Plug-In . SVG Version: 6.00 Build 0)  -->
<!DOCTYPE svg PUBLIC "-//W3C//DTD SVG 1.1//EN" "http://www.w3.org/Graphics/SVG/1.1/DTD/svg11.dtd">
<svg version="1.1" id="Layer_1" xmlns="http://www.w3.org/2000/svg" xmlns:xlink="http://www.w3.org/1999/xlink" x="0px" y="0px"
	 width="512px" height="512px" viewBox="0 0 512 512" enable-background="new 0 0 512 512" xml:space="preserve">
<g id="XMLID_3413_">
	<path id="XMLID_3420_" fill="#414243" d="M168.968,294.393l-0.22-34.992l-16.674,28.082h-11.408l-16.673-26.875v33.785h-23.585
		v-76.786h21.281l25.011,40.917l24.352-40.917h21.28l0.22,76.786H168.968z"/>
	<path id="XMLID_3417_" fill="#414243" d="M330.418,217.607h37.846c25.668,0,43.328,14.589,43.328,38.393
		c0,23.803-17.66,38.393-43.328,38.393h-37.846V217.607z M367.166,274.209c10.859,0,18.318-6.473,18.318-18.209
		c0-11.737-7.459-18.209-18.318-18.209h-10.859v36.418H367.166L367.166,274.209z"/>
	<g>
		<path fill="#414243" d="M287.947,274.318v-56.711h-87.646v76.786h122.309v-20.074H287.947z M262.059,274.867h-36.308v-10.092
			h26.715v-18.648h-26.715v-8.995h36.308V274.867z"/>
	</g>
</g>
</svg>
